<svg width="80" height="80" viewBox="0 0 80 80" fill="none" xmlns="http://www.w3.org/2000/svg">
<g clip-path="url(#clip0_607_564)">
<path opacity="0.996" fill-rule="evenodd" clip-rule="evenodd" d="M39.3736 -0.0114746C39.7761 -0.0114746 40.1784 -0.0114746 40.5809 -0.0114746C49.8306 0.214739 58.0463 3.20258 65.2278 8.95208C71.3861 14.021 75.6953 20.365 78.1549 27.984C79.2939 31.6441 79.9053 35.3874 79.9886 39.214C79.9886 39.738 79.9886 40.2619 79.9886 40.7858C79.736 49.7646 76.8622 57.7753 71.3668 64.8177C66.7809 70.553 61.0595 74.7482 54.2028 77.4031C50.0292 78.9735 45.7162 79.8355 41.2643 79.9885C40.4139 79.9885 39.5634 79.9885 38.713 79.9885C29.4695 79.6054 21.3071 76.481 14.2255 70.615C7.85482 65.1869 3.55339 58.4177 1.32122 50.3074C0.533372 47.3095 0.0891798 44.2646 -0.0113525 41.173C-0.0113525 40.391 -0.0113525 39.6088 -0.0113525 38.8268C0.353224 29.4944 3.50812 21.2636 9.45334 14.1343C14.8821 7.809 21.6361 3.53793 29.7153 1.3211C32.885 0.4924 36.1046 0.0482085 39.3736 -0.0114746Z" fill="#FDFDFD"/>
<path fill-rule="evenodd" clip-rule="evenodd" d="M38.9864 1.811C47.4112 1.66991 55.0727 3.98959 61.9704 8.77C68.6019 13.5214 73.298 19.7439 76.0593 27.4374C78.4 34.3112 78.7948 41.2969 77.2438 48.3941C75.3153 56.5796 71.2037 63.4247 64.9089 68.9295C58.5841 74.3149 51.2568 77.3597 42.9271 78.0638C33.908 78.6871 25.6773 76.4625 18.2347 71.3896C12.54 67.3985 8.2234 62.2543 5.28477 55.9568C2.47641 49.7445 1.36783 43.2374 1.95903 36.4351C2.766 28.4727 5.71967 21.4416 10.8201 15.3417C16.3492 8.89407 23.2702 4.69134 31.5832 2.73355C34.0249 2.19579 36.4927 1.88828 38.9864 1.811Z" fill="#A8DABF"/>
<path fill-rule="evenodd" clip-rule="evenodd" d="M38.9864 4.20284C46.2262 4.06687 52.9158 5.90059 59.0547 9.70398C65.1442 13.6068 69.6887 18.8497 72.688 25.4329C75.3905 31.5965 76.3169 38.0202 75.467 44.704C74.3841 52.3659 71.2178 59.0024 65.9682 64.6129C60.0757 70.7274 52.8964 74.3607 44.4306 75.5126C36.7383 76.422 29.4946 75.0325 22.6994 71.3441C16.0185 67.5864 11.0033 62.26 7.65379 55.3646C4.80316 49.268 3.71735 42.8671 4.39639 36.1618C5.30912 28.2944 8.42227 21.4608 13.7358 15.6607C19.1691 9.87728 25.8091 6.24402 33.6561 4.76093C35.4233 4.45088 37.2 4.26484 38.9864 4.20284Z" fill="#FDFDFD"/>
<path fill-rule="evenodd" clip-rule="evenodd" d="M38.6674 5.34175C38.7665 5.33796 38.8652 5.34177 38.9636 5.35314C38.4025 6.90434 37.8444 8.45712 37.2893 10.0114C37.2408 10.0488 37.1838 10.0677 37.1185 10.0684C36.8677 10.0867 36.6171 10.1057 36.3667 10.1253C36.498 9.72628 36.6421 9.33145 36.7996 8.94083C36.1294 7.8512 35.4538 6.76541 34.7722 5.68343C35.1123 5.63115 35.454 5.60457 35.7973 5.60371C36.2567 6.37031 36.7198 7.13341 37.1868 7.893C37.4781 7.06812 37.7629 6.24049 38.041 5.41008C38.2524 5.39077 38.4611 5.36799 38.6674 5.34175Z" fill="#1D1663"/>
<path fill-rule="evenodd" clip-rule="evenodd" d="M40.6948 5.3418C41.0162 5.35143 41.3351 5.3818 41.6515 5.43291C42.0292 6.11997 42.4125 6.80335 42.8018 7.48303C42.8563 6.83032 42.9055 6.17731 42.9499 5.52403C43.2301 5.5528 43.5109 5.56799 43.7927 5.56959C43.7433 6.2225 43.7016 6.87551 43.6674 7.52859C44.1497 6.92494 44.6317 6.3213 45.1139 5.71765C45.4408 5.72635 45.7674 5.74913 46.0934 5.78599C45.5114 6.47528 44.9269 7.16243 44.3394 7.84749C44.8057 8.67426 45.2763 9.49811 45.7517 10.319C45.4478 10.3165 45.144 10.3013 44.8406 10.2735C44.8077 10.2685 44.7775 10.2571 44.7494 10.2393C44.3661 9.54833 43.9825 8.85736 43.5991 8.1664C43.528 8.82569 43.4711 9.48628 43.4282 10.1482C43.1469 10.1266 42.8661 10.1038 42.5854 10.0798C42.6437 9.41918 42.6929 8.75859 42.7335 8.09806C42.2519 8.72312 41.7622 9.34193 41.2642 9.95455C40.9289 9.94813 40.5948 9.92155 40.262 9.87483C40.8665 9.14515 41.4663 8.41243 42.0615 7.67665C41.597 6.9031 41.1415 6.1248 40.6948 5.3418Z" fill="#1D1664"/>
<path fill-rule="evenodd" clip-rule="evenodd" d="M48.3257 6.34399C49.1781 6.60267 50.0287 6.86844 50.877 7.14126C50.8004 7.40208 50.7168 7.66024 50.6264 7.91575C50.0514 7.7278 49.4744 7.55696 48.8952 7.40322C48.8041 7.69176 48.7129 7.98028 48.6218 8.26882C48.923 8.37169 49.2266 8.47042 49.533 8.56495C50.2872 8.89274 50.5644 9.45841 50.3644 10.262C50.1198 10.9842 49.615 11.3145 48.8496 11.2529C48.7578 11.2419 48.6667 11.2268 48.5763 11.2073C48.0526 11.048 47.5287 10.8923 47.0045 10.7403C47.4414 9.27388 47.8817 7.80841 48.3257 6.34399Z" fill="#1D1663"/>
<path fill-rule="evenodd" clip-rule="evenodd" d="M31.1731 6.45785C31.2237 6.45051 31.2656 6.4657 31.2984 6.5034C32.2941 7.76971 33.2927 9.03395 34.2939 10.2961C34.0283 10.3796 33.7626 10.4631 33.4966 10.5467C33.4565 10.5649 33.4185 10.5611 33.3827 10.5353C32.669 9.58616 31.9551 8.63705 31.2415 7.68791C31.1556 8.89418 31.0873 10.1015 31.0365 11.3098C30.7431 11.3747 30.4544 11.4582 30.1709 11.5604C30.1633 11.492 30.1556 11.4237 30.1481 11.3553C30.2734 9.79051 30.4064 8.22634 30.5467 6.66286C30.757 6.5924 30.9658 6.52406 31.1731 6.45785Z" fill="#1E1664"/>
<path fill-rule="evenodd" clip-rule="evenodd" d="M26.1161 8.25745C26.841 8.19158 27.4713 8.40039 28.0068 8.88388C27.7184 9.01857 27.4262 9.14386 27.1298 9.25973C26.3066 8.90903 25.6385 9.09884 25.1253 9.82921C24.7656 10.5588 24.8681 11.2156 25.4328 11.7996C26.038 12.2792 26.6758 12.3247 27.3462 11.9363C27.6223 11.7399 27.8045 11.478 27.8929 11.1504C28.184 11.0181 28.4763 10.889 28.7699 10.7631C28.7332 11.7819 28.2435 12.4842 27.3007 12.8702C26.0925 13.2549 25.1319 12.9246 24.4191 11.8793C24.077 11.2682 23.9934 10.6228 24.1685 9.9431C24.3997 9.19547 24.882 8.68294 25.615 8.40552C25.7829 8.34853 25.9499 8.29916 26.1161 8.25745Z" fill="#1D1663"/>
<path fill-rule="evenodd" clip-rule="evenodd" d="M54.9544 13.5193C54.9391 13.6104 54.9241 13.7015 54.9088 13.7927C54.641 13.6777 54.3751 13.5562 54.1116 13.4282C54.1041 13.3864 54.0963 13.3447 54.0888 13.3029C54.12 12.9196 54.1389 12.5362 54.1457 12.1526C53.6501 11.9143 53.1528 11.6789 52.6537 11.4464C52.3364 11.7323 52.0214 12.0208 51.7084 12.312C51.4268 12.1879 51.1498 12.055 50.877 11.9134C52.0911 10.8132 53.2984 9.70462 54.4988 8.58765C54.7059 8.66054 54.9109 8.74787 55.1139 8.84961C55.1214 8.87238 55.1291 8.89516 55.1366 8.91794C55.0681 10.4514 55.0072 11.9851 54.9544 13.5193Z" fill="#1D1663"/>
<path fill-rule="evenodd" clip-rule="evenodd" d="M48.3713 9.07739C48.6982 9.15475 49.0171 9.25726 49.328 9.38491C49.5931 9.60015 49.6501 9.86211 49.4988 10.1708C49.3387 10.3914 49.1223 10.4787 48.8496 10.4327C48.5893 10.3599 48.3312 10.2801 48.0751 10.1936C48.0676 10.1822 48.0599 10.1708 48.0524 10.1594C48.1658 9.80033 48.272 9.43967 48.3713 9.07739Z" fill="#FBFBFC"/>
<path fill-rule="evenodd" clip-rule="evenodd" d="M54.2711 9.87476C54.293 9.91496 54.3005 9.96052 54.2939 10.0114C54.2736 10.4298 54.2433 10.8474 54.2028 11.2643C53.8955 11.122 53.5919 10.974 53.2916 10.8201C53.6221 10.5086 53.9486 10.1935 54.2711 9.87476Z" fill="#FAFAFB"/>
<path fill-rule="evenodd" clip-rule="evenodd" d="M54.2711 9.87483C54.2725 9.86246 54.28 9.85488 54.2939 9.85205C54.3235 9.90838 54.3235 9.96155 54.2939 10.0115C54.3005 9.96059 54.293 9.91503 54.2711 9.87483Z" fill="#7C77A5"/>
<path fill-rule="evenodd" clip-rule="evenodd" d="M49.6014 67.5057C49.6014 67.4374 49.6014 67.369 49.6014 67.3007C49.3775 67.3551 49.1572 67.4235 48.9408 67.5057C48.9271 67.5948 48.9044 67.6781 48.8725 67.7563C48.6902 67.8093 48.508 67.8626 48.3258 67.9157C48.2513 67.8793 48.1905 67.8262 48.1435 67.7563C47.9376 67.8262 47.7326 67.8982 47.5285 67.9727C47.518 67.982 47.5105 67.9934 47.5057 68.0068C47.5278 68.059 47.5581 68.1046 47.5968 68.1435C43.0472 69.3216 38.4686 69.4394 33.8611 68.4966C27.5317 67.0733 22.2356 63.9412 17.9727 59.1002C13.2702 53.579 10.8974 47.1704 10.8542 39.8747C10.9302 33.0383 13.0904 26.964 17.3349 21.6515C21.7165 16.3439 27.2859 12.946 34.0433 11.4579C40.3201 10.2088 46.3718 10.8998 52.1982 13.5307C58.0117 16.2841 62.48 20.4717 65.6037 26.0934C68.8251 32.1576 69.8351 38.5738 68.6333 45.3417C67.398 51.6219 64.4709 56.9485 59.852 61.3212C56.8754 64.0827 53.4586 66.1442 49.6014 67.5057Z" fill="#A8DABF"/>
<path fill-rule="evenodd" clip-rule="evenodd" d="M22.5627 11.9021C22.5928 12.1111 22.5928 12.3237 22.5627 12.5399C17.5736 15.7596 13.7164 20.0041 10.9909 25.2734C10.7935 25.3037 10.5961 25.3037 10.3987 25.2734C13.2117 19.6889 17.2663 15.2318 22.5627 11.9021Z" fill="#A8DABF"/>
<path fill-rule="evenodd" clip-rule="evenodd" d="M57.3918 11.9021C62.6918 15.2393 66.7543 19.7001 69.5786 25.2848C69.3757 25.3035 69.1745 25.2996 68.975 25.2734C66.2625 20.0018 62.4089 15.7611 57.4146 12.5513C57.3921 12.3368 57.3846 12.1204 57.3918 11.9021Z" fill="#A8DABF"/>
<path fill-rule="evenodd" clip-rule="evenodd" d="M38.6447 12.6994C44.7278 12.4716 50.2934 14.0396 55.3417 17.4033C60.6176 21.0714 64.2203 25.9803 66.1504 32.1299C67.8071 37.8295 67.6704 43.4864 65.7403 49.1003C63.533 55.1413 59.71 59.868 54.2711 63.2803C49.5308 66.155 44.3827 67.4912 38.8269 67.2894C31.816 66.9035 25.8023 64.2839 20.7859 59.4306C15.9357 54.5454 13.2516 48.6495 12.7335 41.7427C12.3597 34.6568 14.3643 28.347 18.7472 22.8133C22.5162 18.2335 27.2731 15.1546 33.0182 13.5764C34.8674 13.0961 36.7428 12.8037 38.6447 12.6994Z" fill="#FDFDFD"/>
<path fill-rule="evenodd" clip-rule="evenodd" d="M54.9545 13.5193C54.962 13.6192 54.9543 13.7179 54.9317 13.8154C54.9178 13.8126 54.9103 13.805 54.9089 13.7926C54.9242 13.7015 54.9392 13.6104 54.9545 13.5193Z" fill="#8C88B0"/>
<path fill-rule="evenodd" clip-rule="evenodd" d="M41.196 21.2413C41.2021 21.2049 41.1944 21.1746 41.1732 21.1502C41.1083 20.815 40.983 20.5037 40.7973 20.2163C40.3645 19.5478 39.8709 18.9251 39.3167 18.3484C38.7269 17.7434 38.1233 17.155 37.5057 16.583C37.1698 16.2965 36.7825 16.1902 36.344 16.2641C35.8893 16.3607 35.4413 16.4822 35.0001 16.6286C34.4896 16.8215 33.9807 17.019 33.4739 17.2208C33.2053 17.3243 32.9319 17.4116 32.6538 17.4828C32.9472 17.262 33.2508 17.0532 33.565 16.8564C33.9811 16.7379 34.3912 16.6012 34.795 16.4464C35.4404 16.2414 36.101 16.1123 36.7768 16.0591C39.1483 15.87 41.5098 15.9535 43.8611 16.3097C44.2401 16.3741 44.6121 16.4652 44.9773 16.583C45.411 16.8302 45.8666 17.0276 46.344 17.1753C47.1171 17.5541 47.8611 17.9793 48.5764 18.4509C49.4609 19.0394 50.3265 19.6544 51.1732 20.296C51.7729 20.7896 52.3729 21.2831 52.9727 21.7767C53.0677 21.8716 53.1625 21.9665 53.2575 22.0614C53.4417 22.3614 53.6201 22.6651 53.7928 22.9725C53.5531 23.0919 53.3103 23.2097 53.0638 23.3256C52.5568 23.6277 52.1657 24.0416 51.8907 24.5671C51.5376 25.2696 51.2793 26.006 51.1162 26.7767C50.7317 28.5475 50.519 30.3393 50.4784 32.1525C50.4709 33.5495 50.4631 34.9468 50.4556 36.3438C50.4584 37.3543 50.337 38.3491 50.0912 39.3279C49.7447 40.5393 49.0499 41.4921 48.0069 42.1867C47.3237 42.6117 46.5948 42.9382 45.8201 43.1662C45.2449 43.3452 44.6604 43.4819 44.0661 43.5762C43.6852 43.6022 43.3055 43.6402 42.9272 43.6901C42.7568 43.7204 42.5898 43.7621 42.426 43.8154C42.3871 39.624 42.3679 35.4327 42.3691 31.2413C42.3839 29.6828 42.4445 28.1263 42.5513 26.5716C42.583 26.2974 42.6208 26.024 42.6652 25.7516C42.8773 24.9776 43.367 24.4725 44.1344 24.2368C44.3135 24.1844 44.4957 24.1464 44.6811 24.1229C45.2962 24.1008 45.9112 24.078 46.5262 24.0546C46.7162 24.0411 46.8795 23.9691 47.016 23.8382C47.0388 23.7926 47.0616 23.747 47.0843 23.7015C47.0957 22.8814 47.0996 22.0614 47.0957 21.2413C45.1292 21.2413 43.1625 21.2413 41.196 21.2413Z" fill="#A8DABF"/>
<path fill-rule="evenodd" clip-rule="evenodd" d="M41.1731 21.1503C41.1731 21.1807 41.1731 21.211 41.1731 21.2414C38.3182 21.2414 35.4631 21.2414 32.6082 21.2414C32.6007 21.5036 32.6084 21.7618 32.631 22.0159C32.6335 22.3476 32.6754 22.6741 32.7563 22.9954C32.8775 23.3444 33.1091 23.5913 33.451 23.7357C34.0438 23.9446 34.6513 24.0965 35.2734 24.1913C36.3299 24.443 36.9715 25.0997 37.1982 26.1617C37.2615 26.5009 37.3071 26.8425 37.3349 27.1867C37.3365 28.3257 37.3251 29.4646 37.3007 30.6036C37.2854 35.0075 37.2704 39.4116 37.2551 43.8154C36.3513 43.6708 35.4479 43.5227 34.5444 43.3712C33.3545 43.1343 32.2761 42.656 31.3098 41.9362C30.4907 41.2749 29.9554 40.4282 29.7039 39.3963C29.4533 38.402 29.3091 37.3922 29.2711 36.3667C29.2278 34.7193 29.19 33.0715 29.1572 31.4236C29.1171 30.1312 28.9882 28.848 28.7699 27.574C28.6301 26.7364 28.4023 25.9241 28.0866 25.1366C27.8451 24.5585 27.4998 24.0537 27.0501 23.6218C26.5677 23.2097 26.0135 22.9364 25.3873 22.8018C25.1071 22.7475 24.826 22.6981 24.5444 22.6537C24.9226 21.7933 25.5148 21.1213 26.3212 20.6378C28.1228 19.6116 29.9679 18.6625 31.8565 17.7904C32.1185 17.6765 32.3843 17.574 32.6538 17.4829C32.9319 17.4117 33.2053 17.3244 33.4738 17.2209C33.9807 17.019 34.4895 16.8216 35 16.6286C35.4412 16.4823 35.8893 16.3608 36.344 16.2642C36.7825 16.1903 37.1697 16.2966 37.5057 16.5831C38.1232 17.155 38.7269 17.7435 39.3166 18.3485C39.8709 18.9252 40.3645 19.5478 40.7973 20.2163C40.9829 20.5038 41.1082 20.8151 41.1731 21.1503Z" fill="#1C1563"/>
<path fill-rule="evenodd" clip-rule="evenodd" d="M41.1732 21.1504C41.1944 21.1747 41.2021 21.2051 41.196 21.2415C38.3447 21.2643 35.4898 21.2719 32.631 21.2643C32.631 21.5149 32.631 21.7654 32.631 22.016C32.6085 21.7619 32.6007 21.5037 32.6083 21.2415C35.4632 21.2415 38.3183 21.2415 41.1732 21.2415C41.1732 21.2111 41.1732 21.1808 41.1732 21.1504Z" fill="#B7B5CE"/>
<path fill-rule="evenodd" clip-rule="evenodd" d="M23.5421 24.8177C23.5649 24.817 23.58 24.8284 23.5877 24.8518C23.6772 25.1015 23.7492 25.3559 23.8041 25.6149C23.9519 26.6347 24.0089 27.6598 23.9749 28.6901C23.9344 30.3837 23.9458 32.0771 24.0091 33.7698C24.072 35.1286 24.277 36.465 24.6241 37.7789C25.0107 39.1828 25.6866 40.4206 26.6515 41.4919C27.4765 42.3313 28.4371 42.973 29.533 43.4167C31.543 44.1623 33.6082 44.6937 35.7289 45.0113C36.2503 45.0817 36.7743 45.1158 37.3007 45.1138C37.3046 49.829 37.3007 54.5443 37.2893 59.2596C37.2813 59.8951 37.2205 60.5254 37.1071 61.1502C36.8374 62.4867 36.0287 63.2612 34.6811 63.4737C34.6184 63.0637 34.5235 62.6612 34.3964 62.2664C34.1155 61.4085 33.8346 60.5507 33.5535 59.6924C33.3041 58.9049 32.9246 58.1912 32.4146 57.5511C31.9346 57.0131 31.3613 56.607 30.6948 56.3325C29.3294 55.8215 27.9171 55.6013 26.4579 55.6719C25.9307 55.7129 25.403 55.747 24.8747 55.7744C24.2125 55.804 23.6886 55.5534 23.303 55.0227C22.9902 54.5249 22.7852 53.986 22.6879 53.4054C22.6571 53.073 22.6875 52.7464 22.779 52.4259C22.8474 52.2206 22.9157 52.0156 22.9841 51.8108C23.0665 51.4575 23.021 51.1234 22.8474 50.8085C22.6823 50.5924 22.5229 50.3721 22.369 50.148C22.2421 49.7915 22.2725 49.4498 22.4601 49.1229C22.5095 49.0735 22.5588 49.0243 22.6082 48.9748C22.7715 48.8819 22.931 48.783 23.0866 48.6787C23.1478 48.6204 23.2009 48.5559 23.246 48.4851C23.1579 48.3931 23.059 48.3133 22.9499 48.2459C22.5832 48.0842 22.2605 47.86 21.9818 47.5739C21.8106 47.3523 21.7422 47.1017 21.7768 46.8222C21.8662 46.5083 21.9649 46.1969 22.0729 45.8883C22.1424 45.542 22.1651 45.1926 22.1412 44.8404C22.0985 44.5156 21.9428 44.2612 21.6743 44.0773C21.3733 43.9288 21.0696 43.7846 20.7631 43.6445C20.1349 43.2386 19.7932 42.6616 19.738 41.9133C19.7546 41.527 19.8723 41.1739 20.0911 40.8541C20.1898 40.7249 20.2885 40.596 20.3872 40.4669C21.1217 39.7174 21.805 38.9279 22.4374 38.0978C22.7484 37.6874 23.0141 37.247 23.2346 36.7767C23.4282 36.37 23.4891 35.9448 23.4169 35.501C23.3688 35.3441 23.308 35.1921 23.2346 35.0454C22.9759 34.6721 22.7708 34.2698 22.6196 33.8382C22.5826 33.735 22.5599 33.6286 22.5512 33.5193C22.5287 32.8502 22.5439 32.1819 22.5968 31.5147C22.7456 29.8837 22.943 28.2589 23.1891 26.64C23.2909 26.0288 23.4084 25.4215 23.5421 24.8177Z" fill="#1C1563"/>
<path fill-rule="evenodd" clip-rule="evenodd" d="M8.05243 26.5261C9.46822 27.0703 10.8843 27.617 12.3007 28.1662C12.3081 28.2129 12.3005 28.2585 12.2779 28.3029C11.9166 29.2275 11.5597 30.1537 11.2073 31.0819C11.1863 31.161 11.1483 31.2293 11.0934 31.2869C9.67967 30.7512 8.27118 30.2045 6.86792 29.6469C6.96393 29.3851 7.06644 29.127 7.17544 28.8724C8.33389 29.3179 9.49182 29.766 10.6492 30.2163C10.8542 29.7002 11.0592 29.184 11.2643 28.6674C10.1102 28.2195 8.95612 27.7715 7.80186 27.3234C7.79428 27.312 7.78667 27.3006 7.77908 27.2892C7.87717 27.0366 7.96828 26.7824 8.05243 26.5261Z" fill="#1D1663"/>
<path fill-rule="evenodd" clip-rule="evenodd" d="M72.0842 27.0273C72.107 27.0273 72.1298 27.0273 72.1526 27.0273C72.2245 27.285 72.3081 27.5394 72.4031 27.7904C72.3956 27.8018 72.3879 27.8132 72.3804 27.8246C71.3747 28.1636 70.3724 28.5091 69.3735 28.8611C70.6061 29.154 71.8362 29.454 73.0637 29.7608C73.1594 30.0173 73.2505 30.2754 73.3371 30.5353C71.8972 31.0267 70.4583 31.5203 69.0204 32.016C68.917 31.7472 68.8296 31.4738 68.7585 31.1959C69.7642 30.8695 70.7665 30.5317 71.7653 30.1822C70.5421 29.8898 69.3195 29.5936 68.0979 29.2939C67.9963 29.0269 67.9088 28.7574 67.8359 28.4852C69.253 27.9964 70.6692 27.5105 72.0842 27.0273Z" fill="#1D1663"/>
<path fill-rule="evenodd" clip-rule="evenodd" d="M55.7517 27.7563C55.8569 27.8199 55.9444 27.9035 56.0136 28.0069C56.2954 28.4491 56.5537 28.9046 56.7881 29.3737C56.8906 29.7035 56.9398 30.0415 56.9362 30.3873C56.9303 30.642 56.9189 30.8962 56.902 31.1504C56.8052 31.7292 56.6991 32.3062 56.5831 32.8816C56.4979 33.3222 56.5813 33.7245 56.8337 34.0889C57.3414 34.6267 57.797 35.2037 58.2004 35.8201C58.3002 35.932 58.4255 35.9964 58.5763 36.0138C59.0843 36.8361 59.6118 37.6447 60.1594 38.4397C60.6039 39.1789 60.471 39.7901 59.7608 40.2734C59.3849 40.5108 59.0127 40.7536 58.6446 41.0024C58.2205 41.3634 58.0802 41.8153 58.2232 42.3577C58.323 42.6712 58.4294 42.9825 58.5421 43.2917C58.6077 43.7233 58.6155 44.1561 58.5649 44.5901C58.4947 44.8958 58.3162 45.1122 58.0296 45.2393C57.8198 45.3251 57.6225 45.4276 57.4373 45.5468C57.4647 45.6627 57.4988 45.7766 57.5398 45.8885C57.6733 46.1097 57.7947 46.3374 57.9043 46.5718C58.0234 46.95 58.0082 47.322 57.8587 47.688C57.7048 47.9122 57.5453 48.1324 57.3804 48.3486C57.2517 48.5828 57.1756 48.8333 57.1526 49.1003C57.1492 49.8823 57.1492 50.6645 57.1526 51.4466C57.1478 52.039 57.0339 52.6085 56.8109 53.155C56.6704 53.4627 56.4767 53.7322 56.23 53.9636C56.0326 54.0623 55.8353 54.1611 55.6378 54.2598C54.3305 54.503 53.0396 54.8142 51.7654 55.1937C51.156 55.3791 50.5713 55.622 50.0114 55.9226C49.8756 56.0115 49.7503 56.114 49.6355 56.2302C49.4982 56.429 49.3843 56.6415 49.2938 56.868C48.8995 57.8536 48.5501 58.8559 48.246 59.8748C47.8695 61.1379 47.4861 62.3983 47.0957 63.6561C46.4312 63.6682 45.7706 63.6188 45.1139 63.5081C44.5057 63.4087 43.959 63.1734 43.4738 62.8019C43.0259 62.3657 42.7412 61.8379 42.6196 61.2188C42.4918 60.5188 42.4234 59.8126 42.4146 59.1003C42.4086 54.4381 42.4125 49.7762 42.4259 45.114C42.9444 45.1106 43.4606 45.0764 43.9749 45.0115C46.2927 44.6598 48.5401 44.0525 50.7175 43.1891C52.171 42.5217 53.2758 41.4853 54.0319 40.0798C54.9364 38.4967 55.4756 36.796 55.6492 34.9773C55.7109 34.3406 55.7565 33.7028 55.7859 33.0639C55.8 31.2946 55.7886 29.5254 55.7517 27.7563Z" fill="#A8DABF"/>
<path fill-rule="evenodd" clip-rule="evenodd" d="M37.3007 30.6038C37.3082 35.0154 37.3007 39.4268 37.2779 43.8384C37.264 43.8357 37.2565 43.8279 37.2551 43.8156C37.2704 39.4117 37.2854 35.0076 37.3007 30.6038Z" fill="#B9B7CF"/>
<path fill-rule="evenodd" clip-rule="evenodd" d="M7.93851 31.6969C9.06418 31.6589 9.88042 32.1372 10.3873 33.132C10.6592 33.8953 10.5984 34.6318 10.205 35.3416C9.86646 35.8509 9.39949 36.1773 8.80411 36.3211C8.84974 36.0247 8.89908 35.7286 8.95218 35.4327C9.12407 35.3065 9.28352 35.1623 9.43054 34.9999C9.81215 34.4306 9.83493 33.8461 9.49887 33.2459C8.94083 32.5302 8.24607 32.3593 7.41459 32.7334C6.65518 33.2347 6.44637 33.9067 6.78817 34.7493C6.84436 34.8427 6.90892 34.93 6.98179 35.0113C6.91992 35.3254 6.85919 35.6404 6.79956 35.9566C6.02288 35.3853 5.70017 34.6183 5.83145 33.6559C6.092 32.5259 6.79436 31.873 7.93851 31.6969Z" fill="#1D1663"/>
<path fill-rule="evenodd" clip-rule="evenodd" d="M73.7016 32.2209C73.7264 32.2237 73.7415 32.2389 73.7472 32.2665C73.821 32.5827 73.8704 32.9016 73.8952 33.2232C73.3371 33.7966 72.7791 34.3697 72.221 34.943C72.8451 34.831 73.4715 34.7209 74.1002 34.6127C74.1381 34.6168 74.1683 34.6319 74.1914 34.6583C74.2355 34.9166 74.2775 35.1747 74.3166 35.4328C72.8219 35.705 71.3262 35.9706 69.8292 36.2301C69.7886 35.9558 69.7431 35.6825 69.6925 35.41C70.3314 35.2995 70.9693 35.182 71.6059 35.0569C70.8852 34.7118 70.164 34.3663 69.4419 34.0205C69.3674 33.6938 69.3141 33.3674 69.2825 33.041C70.1066 33.472 70.9342 33.8973 71.7654 34.3166C72.4217 33.6253 73.0672 32.9266 73.7016 32.2209Z" fill="#1D1663"/>
<path fill-rule="evenodd" clip-rule="evenodd" d="M72.631 39.4874C72.613 39.4937 72.5978 39.5051 72.5855 39.5215C72.7262 39.5402 72.8629 39.5363 72.9955 39.5101C73.413 39.496 73.8306 39.4885 74.2483 39.4874C74.3547 39.4874 74.4609 39.4874 74.5673 39.4874C74.5604 39.5457 74.5679 39.5987 74.59 39.6468C74.59 39.8671 74.59 40.0871 74.59 40.3074C74.0513 40.3336 73.5121 40.3489 72.9727 40.353C72.8504 40.3454 72.7288 40.3532 72.6083 40.3757C72.611 40.3896 72.6187 40.3971 72.631 40.3985C73.2912 40.8079 73.9518 41.2179 74.6128 41.6286C74.6554 41.9621 74.6629 42.2962 74.6356 42.6309C73.8552 42.1136 73.0693 41.6047 72.278 41.1047C71.5504 41.6423 70.829 42.1889 70.1139 42.7448C70.088 42.4186 70.0805 42.0921 70.0912 41.7653C70.7251 41.3136 71.3593 40.8616 71.9932 40.4099C71.3399 40.4051 70.6871 40.4165 70.0342 40.4441C70.0304 40.163 70.0226 39.8821 70.0114 39.6013C70.6718 39.5778 71.3324 39.5589 71.9932 39.5443C71.3281 39.1183 70.66 38.6969 69.9887 38.2801C69.9584 37.9612 69.9584 37.6423 69.9887 37.3233C70.7194 37.8272 71.4522 38.3284 72.1868 38.8268C72.9606 38.2694 73.7315 37.7074 74.4989 37.1411C74.5265 37.4748 74.5379 37.809 74.5331 38.1434C73.9005 38.5944 73.2663 39.0425 72.631 39.4874Z" fill="#1D1663"/>
<path fill-rule="evenodd" clip-rule="evenodd" d="M8.07521 40.3986C8.23819 40.4251 8.40523 40.4287 8.57635 40.41C8.56396 40.3936 8.54876 40.3822 8.53079 40.3758C7.49165 39.6975 6.45521 39.0141 5.42145 38.3257C5.41006 38.0449 5.40626 37.764 5.41006 37.4829C6.9361 37.5153 8.46229 37.538 9.98865 37.5512C9.97878 37.8321 9.9712 38.113 9.96587 38.3941C8.90279 38.3777 7.83979 38.3663 6.7768 38.3599C7.82095 39.0376 8.86118 39.721 9.89753 40.41C9.92006 40.6929 9.92765 40.9777 9.92031 41.2642C8.40147 41.2553 6.88286 41.2326 5.3645 41.1959C5.3645 40.915 5.3645 40.6339 5.3645 40.3531C6.26767 40.3788 7.17122 40.3941 8.07521 40.3986Z" fill="#1D1663"/>
<path fill-rule="evenodd" clip-rule="evenodd" d="M74.2483 39.4874C74.3579 39.4648 74.4718 39.4573 74.59 39.4646C74.59 39.5254 74.59 39.586 74.59 39.6468C74.5679 39.5988 74.5604 39.5457 74.5672 39.4874C74.4608 39.4874 74.3547 39.4874 74.2483 39.4874Z" fill="#7F7AA7"/>
<path fill-rule="evenodd" clip-rule="evenodd" d="M72.631 39.4875C72.7481 39.5101 72.8695 39.5176 72.9955 39.5103C72.8629 39.5365 72.7262 39.5404 72.5854 39.5217C72.5977 39.5053 72.613 39.4939 72.631 39.4875Z" fill="#7873A2"/>
<path fill-rule="evenodd" clip-rule="evenodd" d="M72.9726 40.3531C72.8587 40.3684 72.7448 40.3834 72.6309 40.3987C72.6186 40.3973 72.6109 40.3898 72.6082 40.3759C72.7287 40.3534 72.8503 40.3456 72.9726 40.3531Z" fill="#807CA8"/>
<path fill-rule="evenodd" clip-rule="evenodd" d="M8.53078 40.376C8.54875 40.3824 8.56394 40.3937 8.57633 40.4101C8.40522 40.4288 8.23818 40.4252 8.0752 40.3988C8.23132 40.406 8.38319 40.3985 8.53078 40.376Z" fill="#7D78A5"/>
<path fill-rule="evenodd" clip-rule="evenodd" d="M9.943 42.1982C10.0144 42.5192 10.0637 42.8459 10.0911 43.1777C9.62009 43.5994 9.15312 44.0247 8.69015 44.4534C9.25204 44.742 9.81391 45.0304 10.3758 45.319C10.4251 45.626 10.4707 45.9335 10.5125 46.2415C10.5049 46.2529 10.4973 46.2643 10.4897 46.2757C9.68245 45.8625 8.8738 45.4525 8.06373 45.0456C8.02979 45.0643 7.99562 45.0832 7.96122 45.1026C7.31847 45.7112 6.66546 46.3074 6.00223 46.8907C5.94742 46.5645 5.90567 46.2379 5.87694 45.9112C6.34391 45.4898 6.81088 45.0684 7.27785 44.647C6.71952 44.3563 6.15763 44.0716 5.5922 43.7928C5.52633 43.4695 5.48457 43.1429 5.46692 42.8133C6.27109 43.2324 7.07974 43.6424 7.89289 44.0433C7.94856 44.0144 8.0017 43.9802 8.05234 43.9408C8.68423 43.3595 9.31446 42.7787 9.943 42.1982Z" fill="#1D1663"/>
<path fill-rule="evenodd" clip-rule="evenodd" d="M70.7632 43.5195C71.9679 43.4751 72.526 44.0523 72.4374 45.2507C72.401 45.4393 72.3743 45.6293 72.3577 45.8202C72.9187 45.9163 73.4807 46.0074 74.0433 46.0935C74.0026 46.3593 73.9609 46.6252 73.9181 46.8908C73.89 46.9047 73.8597 46.9122 73.8269 46.9135C72.3636 46.6753 70.9021 46.4286 69.442 46.1732C69.4288 46.153 69.4212 46.1302 69.4192 46.1049C69.4878 45.6753 69.5597 45.2461 69.6356 44.8179C69.7057 44.4079 69.8919 44.0625 70.1937 43.7814C70.3684 43.6559 70.5581 43.5687 70.7632 43.5195Z" fill="#1D1663"/>
<path fill-rule="evenodd" clip-rule="evenodd" d="M70.8542 44.3622C71.056 44.3371 71.2458 44.3713 71.4237 44.4647C71.5825 44.5841 71.6585 44.7435 71.6515 44.9431C71.6189 45.1832 71.5811 45.4223 71.5376 45.6606C71.1485 45.6116 70.7613 45.5508 70.3759 45.4784C70.3774 45.1572 70.4497 44.8535 70.5923 44.5672C70.6647 44.4752 70.7522 44.4068 70.8542 44.3622Z" fill="#FAFAFB"/>
<path fill-rule="evenodd" clip-rule="evenodd" d="M8.82694 47.4147C10.0827 47.3493 10.9445 47.896 11.4124 49.0548C11.701 50.0714 11.4619 50.9409 10.6948 51.663C9.8435 52.3071 8.93992 52.3907 7.98411 51.9135C7.31584 51.5024 6.91721 50.9065 6.78821 50.1254C6.68662 49.0415 7.10044 48.2251 8.02967 47.6766C8.28543 47.5495 8.55117 47.4623 8.82694 47.4147Z" fill="#1D1663"/>
<path fill-rule="evenodd" clip-rule="evenodd" d="M69.0547 47.574C69.323 47.6407 69.5886 47.7166 69.8519 47.8018C69.6936 48.3134 69.557 48.8298 69.4419 49.3507C69.739 49.4268 70.0351 49.5065 70.3303 49.5899C70.3704 49.6081 70.4084 49.6043 70.4442 49.5785C70.5811 49.1075 70.7178 48.6366 70.8542 48.1662C70.8617 48.1587 70.8695 48.151 70.877 48.1435C71.1267 48.2166 71.3772 48.2849 71.6287 48.3485C71.4923 48.8485 71.3633 49.3496 71.2415 49.8519C71.5622 49.9282 71.8811 50.0118 72.1982 50.1024C72.2135 50.0949 72.2285 50.0872 72.2437 50.0797C72.3943 49.5824 72.531 49.0813 72.6538 48.5763C72.9201 48.6409 73.1859 48.7093 73.451 48.7813C73.2449 49.5756 73.0246 50.3651 72.7904 51.1503C71.3362 50.7346 69.8784 50.3321 68.4169 49.943C68.6223 49.1512 68.8351 48.3614 69.0547 47.574Z" fill="#1D1663"/>
<path fill-rule="evenodd" clip-rule="evenodd" d="M8.87239 48.2575C9.86699 48.1868 10.4782 48.6349 10.7061 49.6014C10.7657 50.3688 10.4505 50.9194 9.76078 51.2529C8.99239 51.518 8.35836 51.3322 7.85873 50.6948C7.39729 49.8713 7.52257 49.1538 8.23458 48.5422C8.43242 48.4094 8.64501 48.3144 8.87239 48.2575Z" fill="#FCFCFD"/>
<path fill-rule="evenodd" clip-rule="evenodd" d="M71.492 52.312C71.9982 52.5462 72.5068 52.774 73.0182 52.9954C72.9185 53.2642 72.7971 53.5223 72.6538 53.7699C72.4014 53.6603 72.1508 53.5464 71.9021 53.4282C71.4351 54.4077 70.9795 55.3949 70.5353 56.3895C70.5428 56.4047 70.5506 56.4198 70.5581 56.435C70.8089 56.5453 71.0519 56.6667 71.287 56.7995C71.1843 57.0516 71.0665 57.2947 70.934 57.5284C70.4242 57.3059 69.9194 57.0742 69.4191 56.8337C69.48 56.7045 69.5406 56.5756 69.6014 56.4464C68.7005 55.4127 67.8046 54.3762 66.9135 53.3371C67.003 53.1163 67.1016 52.8999 67.2096 52.6879C68.5836 52.6979 69.9579 52.7018 71.3326 52.6993C71.3793 52.5678 71.4326 52.4387 71.492 52.312Z" fill="#1D1563"/>
<path fill-rule="evenodd" clip-rule="evenodd" d="M68.9636 53.5193C68.6936 53.5118 68.428 53.5195 68.1663 53.542C68.1483 53.5357 68.133 53.5243 68.1207 53.5079C68.4057 53.489 68.6866 53.4928 68.9636 53.5193Z" fill="#948FB5"/>
<path fill-rule="evenodd" clip-rule="evenodd" d="M68.9635 53.5194C69.6171 53.5112 70.2701 53.5264 70.9225 53.5649C70.6095 54.2424 70.2943 54.9182 69.9772 55.5923C69.3688 54.9119 68.7651 54.2285 68.1663 53.5422C68.428 53.5196 68.6936 53.5119 68.9635 53.5194Z" fill="#FCFBFC"/>
<path fill-rule="evenodd" clip-rule="evenodd" d="M13.041 53.5649C13.0932 53.559 13.1426 53.5667 13.1891 53.5877C13.315 53.8014 13.4213 54.0216 13.508 54.2483C12.444 55.4718 11.3886 56.7018 10.3417 57.9385C10.1907 57.6708 10.0427 57.4011 9.89751 57.1298C10.6948 56.2415 11.492 55.3531 12.2893 54.4647C12.221 54.4494 12.1526 54.4494 12.0843 54.4647C10.9872 54.6128 9.89002 54.7608 8.79273 54.9089C8.76614 54.9014 8.73958 54.8936 8.713 54.8861C8.57633 54.628 8.43965 54.3697 8.30298 54.1116C9.88612 53.9339 11.4655 53.7517 13.041 53.5649Z" fill="#1D1663"/>
<path fill-rule="evenodd" clip-rule="evenodd" d="M14.0206 57.255C15.3041 57.2215 16.1659 57.8063 16.606 59.009C16.8604 60.189 16.4845 61.104 15.4784 61.7539C14.3567 62.291 13.3658 62.1124 12.5058 61.2186C11.8382 60.3732 11.7319 59.4621 12.1868 58.4851C12.6017 57.7821 13.2129 57.3721 14.0206 57.255Z" fill="#1D1663"/>
<path fill-rule="evenodd" clip-rule="evenodd" d="M64.5216 57.3008C65.8685 57.5821 67.22 57.8365 68.5763 58.0639C68.6489 57.9534 68.7287 57.8509 68.8154 57.7564C69.2701 58.0705 69.7218 58.3894 70.1708 58.7131C70.012 58.9441 69.8487 59.1719 69.681 59.3965C69.4569 59.2313 69.2291 59.0719 68.9977 58.9181C68.9116 58.9985 68.8355 59.0896 68.7699 59.1914C68.2118 59.9887 67.6537 60.786 67.0956 61.5832C67.3195 61.7577 67.5473 61.9286 67.779 62.0958C67.6195 62.316 67.4601 62.5361 67.3006 62.7564C66.8394 62.4623 66.3874 62.1473 65.9453 61.811C65.93 61.7958 65.93 61.7807 65.9453 61.7655C66.0136 61.6744 66.082 61.5832 66.1503 61.4921C66.1656 61.4618 66.1656 61.4313 66.1503 61.401C65.4676 60.237 64.7881 59.0714 64.1116 57.9044C64.2455 57.701 64.3822 57.4996 64.5216 57.3008Z" fill="#1D1663"/>
<path fill-rule="evenodd" clip-rule="evenodd" d="M14.0889 58.0751C15.0191 58.0598 15.6076 58.5001 15.8543 59.3963C15.9184 60.2806 15.535 60.8689 14.7039 61.1617C13.9473 61.3129 13.3588 61.0662 12.9385 60.4213C12.5441 59.5473 12.7377 58.8375 13.5194 58.2915C13.7008 58.1894 13.8907 58.1172 14.0889 58.0751Z" fill="#FCFCFD"/>
<path fill-rule="evenodd" clip-rule="evenodd" d="M65.2961 58.303C66.205 58.4643 67.1087 58.6504 68.0068 58.8611C67.5822 59.4715 67.1494 60.0752 66.7084 60.672C66.2258 59.8886 65.7549 59.0989 65.2961 58.303Z" fill="#FCFCFC"/>
<path fill-rule="evenodd" clip-rule="evenodd" d="M18.3941 60.8997C18.9331 61.4197 19.476 61.9359 20.0228 62.4486C20.038 62.4714 20.038 62.4942 20.0228 62.517C19.8396 62.6962 19.6612 62.8785 19.4875 63.0637C19.1386 62.7413 18.7931 62.4149 18.4511 62.0842C17.5855 62.9801 16.7199 63.8762 15.8543 64.7721C15.6499 64.5905 15.4525 64.4008 15.262 64.2026C15.2468 64.1874 15.2468 64.1723 15.262 64.1571C16.319 63.0812 17.363 61.9953 18.3941 60.8997Z" fill="#1D1664"/>
<path fill-rule="evenodd" clip-rule="evenodd" d="M62.1527 60.9226C63.4192 60.9081 64.2659 61.4926 64.6925 62.6766C64.916 63.8215 64.5476 64.7213 63.5877 65.3759C62.6003 65.9144 61.6663 65.8386 60.7859 65.1481C60.085 64.4803 59.8383 63.6716 60.0456 62.7222C60.3902 61.6983 61.0925 61.0985 62.1527 60.9226Z" fill="#1D1663"/>
<path fill-rule="evenodd" clip-rule="evenodd" d="M62.0843 61.7654C63.0036 61.6989 63.6073 62.1014 63.8952 62.9727C64.0152 63.9212 63.6241 64.5476 62.7221 64.8519C61.8845 64.9779 61.2808 64.6629 60.9111 63.9066C60.6444 62.9861 60.9366 62.3066 61.7881 61.8679C61.8902 61.8351 61.9888 61.8009 62.0843 61.7654Z" fill="#FDFDFD"/>
<path fill-rule="evenodd" clip-rule="evenodd" d="M20.6264 63.1321C20.8672 63.2815 21.1026 63.441 21.3326 63.6104C20.7295 64.4829 20.1221 65.3524 19.5102 66.2186C20.6746 65.7505 21.8364 65.2683 22.9954 64.7722C23.2387 64.9241 23.4742 65.0874 23.7016 65.2619C22.8364 66.5102 21.9633 67.7517 21.082 68.9863C20.8573 68.8262 20.6295 68.6706 20.3986 68.5193C21.0122 67.6439 21.6158 66.7669 22.2095 65.8883C21.0529 66.3765 19.895 66.8624 18.7357 67.3462C18.4938 67.1991 18.266 67.0357 18.0524 66.8565C18.9156 65.6175 19.7736 64.376 20.6264 63.1321Z" fill="#1D1663"/>
<path fill-rule="evenodd" clip-rule="evenodd" d="M58.0751 63.9522C58.0979 63.9502 58.1168 63.9579 58.1321 63.975C59.0045 65.1996 59.8738 66.426 60.7403 67.6538C60.5811 67.7898 60.4141 67.919 60.2391 68.0411C60.1815 68.085 60.1207 68.1156 60.0569 68.1322C59.3385 67.1242 58.617 66.1181 57.8929 65.114C57.4526 65.4253 57.012 65.7365 56.5717 66.0479C56.5471 66.0675 56.5432 66.0903 56.5603 66.1162C57.2754 67.0969 57.9815 68.0841 58.6788 69.0775C58.6943 69.1067 58.6906 69.1333 58.6674 69.1572C58.4578 69.3096 58.2453 69.4577 58.0296 69.6014C57.1407 68.3782 56.2599 67.1481 55.3872 65.9112C56.2838 65.2579 57.1799 64.6051 58.0751 63.9522Z" fill="#1D1663"/>
<path fill-rule="evenodd" clip-rule="evenodd" d="M24.6811 65.9338C24.9264 66.045 25.1693 66.1628 25.41 66.2869C25.4219 66.2997 25.4296 66.3149 25.4328 66.3325C25.1923 66.7944 24.9606 67.2614 24.738 67.7334C24.6806 67.9635 24.7451 68.1493 24.9317 68.2915C25.2253 68.4687 25.5289 68.6206 25.8428 68.747C26.1362 68.1491 26.4437 67.5605 26.7654 66.9817C27.0171 67.0981 27.2638 67.2234 27.5057 67.3575C26.8134 68.7076 26.1187 70.0555 25.4214 71.4008C25.1683 71.2915 24.9292 71.1623 24.7039 71.0136C24.954 70.5133 25.2046 70.0122 25.4556 69.5101C25.1827 69.3509 24.9016 69.2029 24.6128 69.066C24.3627 68.9375 24.1538 68.7589 23.9863 68.5306C23.7898 68.1922 23.767 67.8427 23.918 67.4828C24.1668 66.9625 24.4212 66.4461 24.6811 65.9338Z" fill="#1D1663"/>
<path fill-rule="evenodd" clip-rule="evenodd" d="M49.6014 67.5058C49.5278 68.0163 49.2392 68.3388 48.7358 68.4739C48.2848 68.6003 47.9053 68.4903 47.5969 68.1436C47.5581 68.1047 47.5278 68.0591 47.5057 68.0069C47.5105 67.9935 47.518 67.9821 47.5285 67.9728C47.7326 67.8983 47.9376 67.8263 48.1436 67.7564C48.1905 67.8263 48.2513 67.8794 48.3258 67.9158C48.3946 67.9577 48.4704 67.9691 48.5536 67.95C48.6864 67.9254 48.7928 67.8609 48.8725 67.7564C48.9044 67.6782 48.9271 67.5949 48.9408 67.5058C49.1572 67.4236 49.3775 67.3552 49.6014 67.3008C49.6014 67.3691 49.6014 67.4375 49.6014 67.5058Z" fill="#1E1764"/>
<path fill-rule="evenodd" clip-rule="evenodd" d="M48.8724 67.7563C48.7927 67.8609 48.6863 67.9254 48.5535 67.95C48.4703 67.9691 48.3945 67.9577 48.3257 67.9158C48.5079 67.8627 48.6901 67.8094 48.8724 67.7563Z" fill="#EBEEF1"/>
<path fill-rule="evenodd" clip-rule="evenodd" d="M28.7814 67.9158C29.5552 68.1711 30.3219 68.4445 31.0821 68.7358C30.9909 68.9866 30.8998 69.2372 30.8087 69.4875C30.3108 69.3001 29.8096 69.1292 29.3053 68.975C29.175 69.3001 29.0611 69.6304 28.9636 69.9659C29.4406 70.1299 29.919 70.2893 30.3987 70.4442C30.3151 70.7023 30.2317 70.9606 30.1481 71.2187C29.6659 71.0732 29.1875 70.9137 28.713 70.7404C28.6868 70.7477 28.6679 70.7627 28.6561 70.7859C28.5575 71.0668 28.4586 71.3479 28.36 71.6288C28.3436 71.6654 28.3474 71.6996 28.3713 71.7313C28.8538 71.9023 29.336 72.0732 29.8178 72.2438C29.7604 72.511 29.6732 72.7691 29.5559 73.0183C28.8144 72.7495 28.0702 72.4875 27.3235 72.2324C27.3003 72.2206 27.2852 72.2016 27.278 72.1755C27.7702 70.7515 28.2713 69.3317 28.7814 67.9158Z" fill="#1D1663"/>
<path fill-rule="evenodd" clip-rule="evenodd" d="M50.5808 68.1206C50.6111 68.1206 50.6416 68.1206 50.6719 68.1206C51.1091 69.4892 51.5533 70.8559 52.0045 72.2208C52.03 72.2965 52.0451 72.3723 52.0501 72.4486C51.7929 72.5561 51.5309 72.632 51.2642 72.6764C50.9407 71.6719 50.6104 70.6696 50.2733 69.6696C49.969 70.8867 49.6578 72.1015 49.3394 73.3142C49.0779 73.4217 48.812 73.5204 48.5421 73.6104C48.0653 72.1684 47.5906 70.7258 47.1184 69.2823C47.3836 69.1687 47.6569 69.0776 47.9385 69.009C48.2542 70.0204 48.5767 71.0302 48.9066 72.0386C49.2211 70.8334 49.5325 69.6261 49.8405 68.4167C49.8519 68.3901 49.8708 68.3712 49.8975 68.3598C50.13 68.286 50.3578 68.2063 50.5808 68.1206Z" fill="#1D1663"/>
<path fill-rule="evenodd" clip-rule="evenodd" d="M33.5877 69.3737C34.3676 69.3135 35.0396 69.5489 35.6036 70.0798C35.8726 70.3823 36.051 70.7315 36.1389 71.1277C35.8355 71.0785 35.5319 71.029 35.2278 70.9796C34.8726 70.3883 34.3487 70.1299 33.656 70.2051C32.9909 70.3463 32.5694 70.745 32.3918 71.401C32.2758 72.2436 32.5984 72.8473 33.3599 73.212C33.9013 73.4038 34.3911 73.3163 34.8291 72.95C35.1446 73.0051 35.4596 73.0659 35.7745 73.1322C35.1198 73.9997 34.2619 74.2997 33.2004 74.032C32.1143 73.6436 31.5524 72.8691 31.5148 71.7085C31.5836 70.7122 32.0619 69.9908 32.9499 69.5445C33.1578 69.4584 33.3706 69.4015 33.5877 69.3737Z" fill="#1D1663"/>
<path fill-rule="evenodd" clip-rule="evenodd" d="M43.8382 69.6698C45.0423 69.6112 45.889 70.1276 46.3781 71.2187C46.7002 72.2502 46.4685 73.1349 45.6833 73.8725C45.0155 74.3773 44.2715 74.5367 43.451 74.3508C42.4391 74.0299 41.8658 73.3426 41.7312 72.2893C41.6735 71.1322 42.171 70.316 43.2232 69.8406C43.4262 69.7652 43.6312 69.7083 43.8382 69.6698Z" fill="#1D1663"/>
<path fill-rule="evenodd" clip-rule="evenodd" d="M38.189 71.697C38.1628 71.7837 38.1592 71.8749 38.1777 71.9703C38.1941 71.958 38.2054 71.9427 38.2118 71.9247C38.6827 71.2981 39.1496 70.668 39.6127 70.0341C39.6747 70.0127 39.7392 70.0049 39.8064 70.0113C40.0797 70.0266 40.3531 70.0416 40.6264 70.0569C40.0373 70.779 39.4601 71.5118 38.8952 72.255C39.4437 73.0332 39.9982 73.8077 40.5581 74.5785C40.2239 74.5938 39.89 74.5938 39.5558 74.5785C39.0963 73.9065 38.6371 73.2345 38.1777 72.5626C38.146 73.2227 38.1346 73.8833 38.1435 74.5443C37.8626 74.5443 37.5815 74.5443 37.3007 74.5443C37.3066 73.0254 37.3294 71.5067 37.369 69.9885C37.6499 69.9885 37.931 69.9885 38.2118 69.9885C38.1913 70.5578 38.1838 71.1272 38.189 71.697Z" fill="#1D1663"/>
<path fill-rule="evenodd" clip-rule="evenodd" d="M39.8064 70.0114C40.0877 70.0038 40.3686 70.0114 40.6492 70.0341C40.6465 70.048 40.6387 70.0556 40.6264 70.0569C40.3531 70.0417 40.0797 70.0266 39.8064 70.0114Z" fill="#A4A0C0"/>
<path fill-rule="evenodd" clip-rule="evenodd" d="M43.9066 70.4898C44.8681 70.4534 45.4567 70.9015 45.672 71.8338C45.72 72.7345 45.3139 73.3154 44.4533 73.5764C43.5064 73.701 42.8875 73.3099 42.5968 72.4033C42.4572 71.5245 42.795 70.9133 43.6105 70.5696C43.713 70.5459 43.8116 70.5192 43.9066 70.4898Z" fill="#FCFCFD"/>
<path fill-rule="evenodd" clip-rule="evenodd" d="M38.189 71.697C38.182 71.7777 38.1895 71.8537 38.2118 71.9248C38.2055 71.9428 38.1941 71.9581 38.1777 71.9704C38.1592 71.8749 38.1629 71.7838 38.189 71.697Z" fill="#656095"/>
</g>
<defs>
<clipPath id="clip0_607_564">
<rect width="80" height="80" fill="white"/>
</clipPath>
</defs>
</svg>
